<svg width="260" height="299" viewBox="0 0 260 299" fill="none" xmlns="http://www.w3.org/2000/svg">
<path d="M85.875 269.37C14.2544 284.264 4.66798 235.302 7.04476 202.82C-0.481745 219.061 -4.04693 252.574 7.04476 274.123C20.9094 301.06 64.7595 305.546 116.377 290.365C156.783 278.481 203.13 242.037 226.502 212.723L246.747 188.163L223.729 174.298C192.038 211.931 157.496 254.475 85.875 269.37Z" fill="url(#paint0_linear_42_41)"/>
<path d="M216.202 184.201C205.428 161.067 204.318 128.875 205.111 115.671V96.6562L234.028 112.502V124.782C234.424 160.037 244.328 176.675 247.497 187.37C252.074 202.82 265.493 227.776 257.004 265.805C249.081 301.298 197.716 300.928 173.024 296.307C208.676 297.099 221.748 274.519 226.898 260.259C232.048 245.998 231.255 217.476 216.202 184.201Z" fill="url(#paint1_linear_42_41)"/>
<path d="M49.0348 171.921C54.7391 154.808 56.1652 128.611 56.1652 117.651L56.1652 100.221H49.0348L28.8321 117.651C28.0398 117.651 26.4553 118.919 26.4553 123.989C26.1384 149.025 14.5713 185.39 7.44094 203.216C5.46026 230.549 10.1316 240.848 15.3636 250.752C23.6823 266.498 50.7514 272.275 62.5033 272.539C53.6563 270.294 32.7934 269.37 31.2089 246.394C29.8975 227.38 41.9044 193.312 49.0348 171.921Z" fill="url(#paint2_linear_42_41)"/>
<path d="M110.435 251.544C74.387 237.679 56.1649 198.858 49.0346 172.317L41.5081 195.293L34.3777 219.061C39.5274 226.983 45.4694 240.477 68.8412 259.466C79.1406 267.834 137.372 295.91 174.212 295.91C210.023 296.861 223.729 272.01 226.105 259.466C221.352 267.706 211.977 270.822 207.883 271.35C202.88 272.184 186.492 271.35 165.497 268.577C157.971 267.583 146.483 265.408 110.435 251.544Z" fill="url(#paint3_linear_42_41)"/>
<path d="M228.086 247.583C224.125 288.385 187.285 296.703 172.628 295.911C173.816 296.968 187.285 297.186 192.434 296.703C209.864 295.069 218.579 284.423 224.125 276.501C230.78 266.994 230.463 243.886 229.275 234.511L228.086 247.583Z" fill="#A9CF68"/>
<path d="M7.83709 204.008C7.83709 222.626 10.7002 267.644 58.0425 272.539C36.8553 271.723 -1.8067 259.884 7.83709 204.008Z" fill="#A56E6B"/>
<path fill-rule="evenodd" clip-rule="evenodd" d="M130.193 0C164.656 0 182.087 25.3526 184.463 59.4199H214.965C219.059 59.6841 227.166 64.649 226.849 82.3955H35.5171C34.4607 75.5293 35.2006 61.3215 46.6089 59.4199H77.1108C75.9224 40.6697 88.5991 8.01375e-05 130.193 0ZM130.589 15.8447C101.434 15.5278 93.6171 43.9707 93.353 58.2314H168.222C167.826 44.2348 159.745 16.1617 130.589 15.8447Z" fill="url(#paint4_linear_42_41)"/>
<path d="M152.821 12.6763C127.469 3.16912 107.926 20.5989 101.324 30.5022C94.5898 42.3862 93.0053 52.2895 93.0053 59.4197H76.7639C76.7639 24.9563 98.1178 6.0692e-05 131.826 0C161.932 -5.42055e-05 175.797 21.7873 180.154 37.6325L175.797 31.2944C173.024 26.9369 163.913 17.1129 152.821 12.6763Z" fill="#F99912"/>
<path d="M43.4889 77.6766H69.6336L54.1845 106.99C51.8077 120.063 45.8657 124.816 32.7934 124.816C22.0978 124.816 16.684 112.668 16.1558 106.99L37.1508 80.0534C38.7353 77.6765 41.5083 77.5446 43.4889 77.6766Z" fill="#F99912"/>
<path d="M32.7933 124.817C22.0977 124.817 16.6839 112.669 16.1558 106.991H54.1844C51.8076 120.063 45.8657 124.817 32.7933 124.817Z" fill="#D98105"/>
<path d="M100.532 77.6765H69.6335L54.1843 106.99C53.7882 108.971 56.9573 125.212 74.3871 125.212C88.3309 125.212 92.345 112.536 92.6091 106.198L100.532 77.6765Z" fill="#9ACD32"/>
<path d="M74.3871 125.213C88.3309 125.213 92.345 113.329 92.6091 106.991H54.1843C53.7882 108.971 56.9573 125.213 74.3871 125.213Z" fill="#83B718"/>
<path d="M131.034 77.6765H100.532L92.6091 106.198C93.2693 111.876 94.9859 124.816 111.227 124.816C124.598 124.816 129.978 115.573 131.034 110.159V77.6765Z" fill="#9370DB"/>
<path d="M111.227 124.816C127.469 124.816 129.978 112.765 131.034 107.352H93.0052C93.6655 113.029 94.9859 124.816 111.227 124.816Z" fill="#7749D5"/>
<path d="M161.536 77.6765H131.034V110.159C132.486 115.573 138.56 126.163 151.237 125.212C166.131 124.262 169.327 112.14 169.063 106.198L161.536 77.6765Z" fill="#9ACD32"/>
<path d="M151.237 125.212C163.121 125.212 169.723 113.294 169.459 107.352H131.034V110.159C132.486 115.573 137.372 125.212 151.237 125.212Z" fill="#83B718"/>
<path d="M190.85 77.6765H159.952L167.478 106.594C168.666 112.668 172.628 124.816 188.077 124.816C201.704 124.816 206.167 112.668 206.695 106.594L190.85 77.6765Z" fill="#9370DB"/>
<path d="M188.077 124.816C201.704 124.816 205.771 113.426 206.299 107.352H167.874C169.063 113.426 172.628 124.816 188.077 124.816Z" fill="#7749D5"/>
<path d="M218.975 77.6765H190.85L206.695 106.594C206.959 113.592 213.033 126.97 226.106 125.608C241.317 124.024 244.592 112.272 244.328 106.594C239.574 100.52 229.275 87.3421 226.106 83.2224C222.937 79.1026 220.032 77.8086 218.975 77.6765Z" fill="#9ACD32"/>
<path d="M226.106 125.608C242.347 125.608 244.592 113.029 244.328 107.352H206.695C206.959 114.35 212.963 125.608 226.106 125.608Z" fill="#83B718"/>
<path d="M220.164 77.6416L223.729 80.4145C223.729 80.4145 184.908 83.9797 130.638 83.9797C76.3679 83.9797 35.5663 81.9991 35.5663 81.9991L41.5083 77.6416H220.164Z" fill="url(#paint5_linear_42_41)"/>
<defs>
<linearGradient id="paint0_linear_42_41" x1="211.845" y1="187.37" x2="15.3635" y2="284.819" gradientUnits="userSpaceOnUse">
<stop offset="0.0304635" stop-color="#9370DB"/>
<stop offset="0.855071" stop-color="#F99912"/>
</linearGradient>
<linearGradient id="paint1_linear_42_41" x1="216.599" y1="70.9077" x2="216.391" y2="298.498" gradientUnits="userSpaceOnUse">
<stop offset="0.141144" stop-color="#6B6774"/>
<stop offset="0.28553" stop-color="#9370DB"/>
<stop offset="1" stop-color="#9ACD32"/>
</linearGradient>
<linearGradient id="paint2_linear_42_41" x1="49.4309" y1="104.579" x2="-15.9308" y2="287.988" gradientUnits="userSpaceOnUse">
<stop offset="0.0692614" stop-color="#A66100"/>
<stop offset="0.20474" stop-color="#F99912"/>
<stop offset="0.844621" stop-color="#9571D7"/>
<stop offset="1" stop-color="#9370DB"/>
</linearGradient>
<linearGradient id="paint3_linear_42_41" x1="30.0202" y1="165.583" x2="226.106" y2="293.93" gradientUnits="userSpaceOnUse">
<stop stop-color="#9ACD32"/>
<stop offset="0.500554" stop-color="#9370DB"/>
<stop offset="0.938902" stop-color="#9ACD32"/>
</linearGradient>
<linearGradient id="paint4_linear_42_41" x1="106.821" y1="12.6762" x2="253.786" y2="101.806" gradientUnits="userSpaceOnUse">
<stop stop-color="#F99912"/>
<stop offset="0.177036" stop-color="#B67E96"/>
<stop offset="0.351003" stop-color="#9370DB"/>
<stop offset="0.558495" stop-color="#97A37D"/>
<stop offset="0.901876" stop-color="#9ACD32"/>
</linearGradient>
<linearGradient id="paint5_linear_42_41" x1="117.962" y1="71.6996" x2="117.962" y2="86.7526" gradientUnits="userSpaceOnUse">
<stop offset="0.344677" stop-color="#737373" stop-opacity="0.5"/>
<stop offset="1" stop-color="#D9D9D9" stop-opacity="0"/>
</linearGradient>
</defs>
</svg>
